# Blender 4.4.3
# www.blender.org
mtllib Car Chassis Blockout.mtl
o wheels
v 0.742637 0.191037 0.968767
v 1.046510 0.191037 0.968767
v 0.742637 0.032790 1.000244
v 1.046510 0.032790 1.000244
v 0.742637 -0.101366 1.089884
v 1.046510 -0.101366 1.089884
v 0.742637 -0.191006 1.224040
v 1.046510 -0.191006 1.224040
v 0.742637 -0.222483 1.382288
v 1.046510 -0.222483 1.382288
v 0.742637 -0.191006 1.540535
v 1.046510 -0.191006 1.540535
v 0.742637 -0.101366 1.674691
v 1.046510 -0.101366 1.674691
v 0.742637 0.032790 1.764331
v 1.046510 0.032790 1.764331
v 0.742637 0.191037 1.795808
v 1.046510 0.191037 1.795808
v 0.742637 0.349285 1.764331
v 1.046510 0.349285 1.764331
v 0.742637 0.483440 1.674691
v 1.046510 0.483440 1.674691
v 0.742637 0.573080 1.540535
v 1.046510 0.573080 1.540535
v 0.742637 0.604558 1.382288
v 1.046510 0.604558 1.382288
v 0.742637 0.573080 1.224040
v 1.046510 0.573080 1.224040
v 0.742637 0.483440 1.089884
v 1.046510 0.483440 1.089884
v 0.742637 0.349285 1.000244
v 1.046510 0.349285 1.000244
v -0.742637 0.191037 0.968767
v -1.046510 0.191037 0.968767
v -0.742637 0.032790 1.000244
v -1.046510 0.032790 1.000244
v -0.742637 -0.101366 1.089884
v -1.046510 -0.101366 1.089884
v -0.742637 -0.191006 1.224040
v -1.046510 -0.191006 1.224040
v -0.742637 -0.222483 1.382288
v -1.046510 -0.222483 1.382288
v -0.742637 -0.191006 1.540535
v -1.046510 -0.191006 1.540535
v -0.742637 -0.101366 1.674691
v -1.046510 -0.101366 1.674691
v -0.742637 0.032790 1.764331
v -1.046510 0.032790 1.764331
v -0.742637 0.191037 1.795808
v -1.046510 0.191037 1.795808
v -0.742637 0.349285 1.764331
v -1.046510 0.349285 1.764331
v -0.742637 0.483440 1.674691
v -1.046510 0.483440 1.674691
v -0.742637 0.573080 1.540535
v -1.046510 0.573080 1.540535
v -0.742637 0.604558 1.382288
v -1.046510 0.604558 1.382288
v -0.742637 0.573080 1.224040
v -1.046510 0.573080 1.224040
v -0.742637 0.483440 1.089884
v -1.046510 0.483440 1.089884
v -0.742637 0.349285 1.000244
v -1.046510 0.349285 1.000244
v 0.742637 0.191037 -1.524636
v 1.046510 0.191037 -1.524636
v 0.742637 0.032790 -1.556113
v 1.046510 0.032790 -1.556113
v 0.742637 -0.101366 -1.645753
v 1.046510 -0.101366 -1.645753
v 0.742637 -0.191006 -1.779909
v 1.046510 -0.191006 -1.779909
v 0.742637 -0.222483 -1.938157
v 1.046510 -0.222483 -1.938157
v 0.742637 -0.191006 -2.096404
v 1.046510 -0.191006 -2.096404
v 0.742637 -0.101366 -2.230560
v 1.046510 -0.101366 -2.230560
v 0.742637 0.032790 -2.320200
v 1.046510 0.032790 -2.320200
v 0.742637 0.191037 -2.351677
v 1.046510 0.191037 -2.351677
v 0.742637 0.349285 -2.320200
v 1.046510 0.349285 -2.320200
v 0.742637 0.483440 -2.230560
v 1.046510 0.483440 -2.230560
v 0.742637 0.573080 -2.096404
v 1.046510 0.573080 -2.096404
v 0.742637 0.604558 -1.938157
v 1.046510 0.604558 -1.938157
v 0.742637 0.573080 -1.779909
v 1.046510 0.573080 -1.779909
v 0.742637 0.483440 -1.645753
v 1.046510 0.483440 -1.645753
v 0.742637 0.349285 -1.556113
v 1.046510 0.349285 -1.556113
v -0.742637 0.191037 -1.524636
v -1.046510 0.191037 -1.524636
v -0.742637 0.032790 -1.556113
v -1.046510 0.032790 -1.556113
v -0.742637 -0.101366 -1.645753
v -1.046510 -0.101366 -1.645753
v -0.742637 -0.191006 -1.779909
v -1.046510 -0.191006 -1.779909
v -0.742637 -0.222483 -1.938157
v -1.046510 -0.222483 -1.938157
v -0.742637 -0.191006 -2.096404
v -1.046510 -0.191006 -2.096404
v -0.742637 -0.101366 -2.230560
v -1.046510 -0.101366 -2.230560
v -0.742637 0.032790 -2.320200
v -1.046510 0.032790 -2.320200
v -0.742637 0.191037 -2.351677
v -1.046510 0.191037 -2.351677
v -0.742637 0.349285 -2.320200
v -1.046510 0.349285 -2.320200
v -0.742637 0.483440 -2.230560
v -1.046510 0.483440 -2.230560
v -0.742637 0.573080 -2.096404
v -1.046510 0.573080 -2.096404
v -0.742637 0.604558 -1.938157
v -1.046510 0.604558 -1.938157
v -0.742637 0.573080 -1.779909
v -1.046510 0.573080 -1.779909
v -0.742637 0.483440 -1.645753
v -1.046510 0.483440 -1.645753
v -0.742637 0.349285 -1.556113
v -1.046510 0.349285 -1.556113
vn -0.0000 -0.1951 -0.9808
vn -0.0000 -0.5556 -0.8315
vn -0.0000 -0.8315 -0.5556
vn -0.0000 -0.9808 -0.1951
vn -0.0000 -0.9808 0.1951
vn -0.0000 -0.8315 0.5556
vn -0.0000 -0.5556 0.8315
vn -0.0000 -0.1951 0.9808
vn -0.0000 0.1951 0.9808
vn -0.0000 0.5556 0.8315
vn -0.0000 0.8315 0.5556
vn -0.0000 0.9808 0.1951
vn -0.0000 0.9808 -0.1951
vn -0.0000 0.8315 -0.5556
vn 1.0000 -0.0000 -0.0000
vn -0.0000 0.5556 -0.8315
vn -0.0000 0.1951 -0.9808
vn -1.0000 -0.0000 -0.0000
vt 1.000000 1.000000
vt 0.937500 0.500000
vt 1.000000 0.500000
vt 0.937500 1.000000
vt 0.875000 0.500000
vt 0.875000 1.000000
vt 0.812500 0.500000
vt 0.812500 1.000000
vt 0.750000 0.500000
vt 0.750000 1.000000
vt 0.687500 0.500000
vt 0.687500 1.000000
vt 0.625000 0.500000
vt 0.625000 1.000000
vt 0.562500 0.500000
vt 0.500000 1.000000
vt 0.500000 0.500000
vt 0.437500 1.000000
vt 0.437500 0.500000
vt 0.375000 0.500000
vt 0.375000 1.000000
vt 0.312500 0.500000
vt 0.312500 1.000000
vt 0.250000 0.500000
vt 0.250000 1.000000
vt 0.187500 0.500000
vt 0.187500 1.000000
vt 0.125000 0.500000
vt 0.080294 0.080294
vt 0.419706 0.080294
vt 0.419706 0.419706
vt 0.125000 1.000000
vt 0.062500 0.500000
vt 0.062500 1.000000
vt 0.000000 0.500000
vt 0.841844 0.028269
vt 0.528269 0.158156
vt 0.658156 0.471731
vt 0.562500 1.000000
vt 0.250000 0.010000
vt 0.010000 0.250000
vt 0.250000 0.490000
vt 0.658156 0.028269
vt 0.971731 0.158156
vt 0.841844 0.471731
vt 0.341844 0.471731
vt 0.158156 0.471731
vt 0.080294 0.419706
vt 0.028269 0.341844
vt 0.028269 0.158156
vt 0.158156 0.028269
vt 0.341844 0.028269
vt 0.471731 0.158156
vt 0.490000 0.250000
vt 0.471731 0.341844
vt 0.000000 1.000000
vt 0.750000 0.490000
vt 0.919706 0.419706
vt 0.971731 0.341844
vt 0.990000 0.250000
vt 0.919706 0.080294
vt 0.750000 0.010000
vt 0.580294 0.080294
vt 0.510000 0.250000
vt 0.528269 0.341844
vt 0.580294 0.419706
s 0
f 2/1/1 3/2/1 1/3/1
f 4/4/2 5/5/2 3/2/2
f 6/6/3 7/7/3 5/5/3
f 8/8/4 9/9/4 7/7/4
f 10/10/5 11/11/5 9/9/5
f 12/12/6 13/13/6 11/11/6
f 14/14/7 15/15/7 13/13/7
f 15/15/8 18/16/8 17/17/8
f 17/17/9 20/18/9 19/19/9
f 20/18/10 21/20/10 19/19/10
f 22/21/11 23/22/11 21/20/11
f 24/23/12 25/24/12 23/22/12
f 26/25/13 27/26/13 25/24/13
f 28/27/14 29/28/14 27/26/14
f 22/29/15 14/30/15 6/31/15
f 30/32/16 31/33/16 29/28/16
f 32/34/17 1/35/17 31/33/17
f 15/36/18 23/37/18 31/38/18
f 35/2/1 34/1/1 33/3/1
f 37/5/2 36/4/2 35/2/2
f 39/7/3 38/6/3 37/5/3
f 41/9/4 40/8/4 39/7/4
f 43/11/5 42/10/5 41/9/5
f 45/13/6 44/12/6 43/11/6
f 47/15/7 46/14/7 45/13/7
f 47/15/8 50/16/8 48/39/8
f 49/17/9 52/18/9 50/16/9
f 53/20/10 52/18/10 51/19/10
f 55/22/11 54/21/11 53/20/11
f 57/24/12 56/23/12 55/22/12
f 59/26/13 58/25/13 57/24/13
f 61/28/14 60/27/14 59/26/14
f 50/40/18 58/41/18 34/42/18
f 63/33/16 62/32/16 61/28/16
f 33/35/17 64/34/17 63/33/17
f 51/43/15 43/44/15 35/45/15
f 67/2/8 66/1/8 65/3/8
f 69/5/7 68/4/7 67/2/7
f 71/7/6 70/6/6 69/5/6
f 73/9/5 72/8/5 71/7/5
f 75/11/4 74/10/4 73/9/4
f 77/13/3 76/12/3 75/11/3
f 79/15/2 78/14/2 77/13/2
f 79/15/1 82/16/1 80/39/1
f 81/17/17 84/18/17 82/16/17
f 85/20/16 84/18/16 83/19/16
f 87/22/14 86/21/14 85/20/14
f 89/24/13 88/23/13 87/22/13
f 91/26/12 90/25/12 89/24/12
f 93/28/11 92/27/11 91/26/11
f 82/40/15 90/41/15 66/42/15
f 95/33/10 94/32/10 93/28/10
f 65/35/9 96/34/9 95/33/9
f 83/43/18 75/44/18 67/45/18
f 98/1/8 99/2/8 97/3/8
f 100/4/7 101/5/7 99/2/7
f 102/6/6 103/7/6 101/5/6
f 104/8/5 105/9/5 103/7/5
f 106/10/4 107/11/4 105/9/4
f 108/12/3 109/13/3 107/11/3
f 110/14/2 111/15/2 109/13/2
f 111/15/1 114/16/1 113/17/1
f 113/17/17 116/18/17 115/19/17
f 116/18/16 117/20/16 115/19/16
f 118/21/14 119/22/14 117/20/14
f 120/23/13 121/24/13 119/22/13
f 122/25/12 123/26/12 121/24/12
f 124/27/11 125/28/11 123/26/11
f 118/29/18 110/30/18 102/31/18
f 126/32/10 127/33/10 125/28/10
f 128/34/9 97/35/9 127/33/9
f 111/36/15 119/37/15 127/38/15
f 2/1/1 4/4/1 3/2/1
f 4/4/2 6/6/2 5/5/2
f 6/6/3 8/8/3 7/7/3
f 8/8/4 10/10/4 9/9/4
f 10/10/5 12/12/5 11/11/5
f 12/12/6 14/14/6 13/13/6
f 14/14/7 16/39/7 15/15/7
f 15/15/8 16/39/8 18/16/8
f 17/17/9 18/16/9 20/18/9
f 20/18/10 22/21/10 21/20/10
f 22/21/11 24/23/11 23/22/11
f 24/23/12 26/25/12 25/24/12
f 26/25/13 28/27/13 27/26/13
f 28/27/14 30/32/14 29/28/14
f 6/31/15 4/46/15 2/42/15
f 2/42/15 32/47/15 30/48/15
f 30/48/15 28/49/15 26/41/15
f 26/41/15 24/50/15 22/29/15
f 22/29/15 20/51/15 18/40/15
f 18/40/15 16/52/15 14/30/15
f 14/30/15 12/53/15 10/54/15
f 10/54/15 8/55/15 6/31/15
f 6/31/15 2/42/15 30/48/15
f 30/48/15 26/41/15 22/29/15
f 22/29/15 18/40/15 14/30/15
f 14/30/15 10/54/15 6/31/15
f 6/31/15 30/48/15 22/29/15
f 30/32/16 32/34/16 31/33/16
f 32/34/17 2/56/17 1/35/17
f 31/38/18 1/57/18 3/45/18
f 3/45/18 5/58/18 7/59/18
f 7/59/18 9/60/18 11/44/18
f 11/44/18 13/61/18 15/36/18
f 15/36/18 17/62/18 19/43/18
f 19/43/18 21/63/18 23/37/18
f 23/37/18 25/64/18 27/65/18
f 27/65/18 29/66/18 31/38/18
f 31/38/18 3/45/18 7/59/18
f 7/59/18 11/44/18 15/36/18
f 15/36/18 19/43/18 23/37/18
f 23/37/18 27/65/18 31/38/18
f 31/38/18 7/59/18 15/36/18
f 35/2/1 36/4/1 34/1/1
f 37/5/2 38/6/2 36/4/2
f 39/7/3 40/8/3 38/6/3
f 41/9/4 42/10/4 40/8/4
f 43/11/5 44/12/5 42/10/5
f 45/13/6 46/14/6 44/12/6
f 47/15/7 48/39/7 46/14/7
f 47/15/8 49/17/8 50/16/8
f 49/17/9 51/19/9 52/18/9
f 53/20/10 54/21/10 52/18/10
f 55/22/11 56/23/11 54/21/11
f 57/24/12 58/25/12 56/23/12
f 59/26/13 60/27/13 58/25/13
f 61/28/14 62/32/14 60/27/14
f 34/42/18 36/46/18 38/31/18
f 38/31/18 40/55/18 42/54/18
f 42/54/18 44/53/18 46/30/18
f 46/30/18 48/52/18 50/40/18
f 50/40/18 52/51/18 54/29/18
f 54/29/18 56/50/18 58/41/18
f 58/41/18 60/49/18 62/48/18
f 62/48/18 64/47/18 34/42/18
f 34/42/18 38/31/18 42/54/18
f 42/54/18 46/30/18 50/40/18
f 50/40/18 54/29/18 58/41/18
f 58/41/18 62/48/18 34/42/18
f 34/42/18 42/54/18 50/40/18
f 63/33/16 64/34/16 62/32/16
f 33/35/17 34/56/17 64/34/17
f 35/45/15 33/57/15 63/38/15
f 63/38/15 61/66/15 59/65/15
f 59/65/15 57/64/15 55/37/15
f 55/37/15 53/63/15 51/43/15
f 51/43/15 49/62/15 47/36/15
f 47/36/15 45/61/15 43/44/15
f 43/44/15 41/60/15 39/59/15
f 39/59/15 37/58/15 35/45/15
f 35/45/15 63/38/15 59/65/15
f 59/65/15 55/37/15 51/43/15
f 51/43/15 47/36/15 43/44/15
f 43/44/15 39/59/15 35/45/15
f 35/45/15 59/65/15 51/43/15
f 67/2/8 68/4/8 66/1/8
f 69/5/7 70/6/7 68/4/7
f 71/7/6 72/8/6 70/6/6
f 73/9/5 74/10/5 72/8/5
f 75/11/4 76/12/4 74/10/4
f 77/13/3 78/14/3 76/12/3
f 79/15/2 80/39/2 78/14/2
f 79/15/1 81/17/1 82/16/1
f 81/17/17 83/19/17 84/18/17
f 85/20/16 86/21/16 84/18/16
f 87/22/14 88/23/14 86/21/14
f 89/24/13 90/25/13 88/23/13
f 91/26/12 92/27/12 90/25/12
f 93/28/11 94/32/11 92/27/11
f 66/42/15 68/46/15 70/31/15
f 70/31/15 72/55/15 74/54/15
f 74/54/15 76/53/15 78/30/15
f 78/30/15 80/52/15 82/40/15
f 82/40/15 84/51/15 86/29/15
f 86/29/15 88/50/15 90/41/15
f 90/41/15 92/49/15 94/48/15
f 94/48/15 96/47/15 66/42/15
f 66/42/15 70/31/15 74/54/15
f 74/54/15 78/30/15 82/40/15
f 82/40/15 86/29/15 90/41/15
f 90/41/15 94/48/15 66/42/15
f 66/42/15 74/54/15 82/40/15
f 95/33/10 96/34/10 94/32/10
f 65/35/9 66/56/9 96/34/9
f 67/45/18 65/57/18 95/38/18
f 95/38/18 93/66/18 91/65/18
f 91/65/18 89/64/18 87/37/18
f 87/37/18 85/63/18 83/43/18
f 83/43/18 81/62/18 79/36/18
f 79/36/18 77/61/18 75/44/18
f 75/44/18 73/60/18 71/59/18
f 71/59/18 69/58/18 67/45/18
f 67/45/18 95/38/18 91/65/18
f 91/65/18 87/37/18 83/43/18
f 83/43/18 79/36/18 75/44/18
f 75/44/18 71/59/18 67/45/18
f 67/45/18 91/65/18 83/43/18
f 98/1/8 100/4/8 99/2/8
f 100/4/7 102/6/7 101/5/7
f 102/6/6 104/8/6 103/7/6
f 104/8/5 106/10/5 105/9/5
f 106/10/4 108/12/4 107/11/4
f 108/12/3 110/14/3 109/13/3
f 110/14/2 112/39/2 111/15/2
f 111/15/1 112/39/1 114/16/1
f 113/17/17 114/16/17 116/18/17
f 116/18/16 118/21/16 117/20/16
f 118/21/14 120/23/14 119/22/14
f 120/23/13 122/25/13 121/24/13
f 122/25/12 124/27/12 123/26/12
f 124/27/11 126/32/11 125/28/11
f 102/31/18 100/46/18 98/42/18
f 98/42/18 128/47/18 126/48/18
f 126/48/18 124/49/18 122/41/18
f 122/41/18 120/50/18 118/29/18
f 118/29/18 116/51/18 114/40/18
f 114/40/18 112/52/18 110/30/18
f 110/30/18 108/53/18 106/54/18
f 106/54/18 104/55/18 102/31/18
f 102/31/18 98/42/18 126/48/18
f 126/48/18 122/41/18 118/29/18
f 118/29/18 114/40/18 110/30/18
f 110/30/18 106/54/18 102/31/18
f 102/31/18 126/48/18 118/29/18
f 126/32/10 128/34/10 127/33/10
f 128/34/9 98/56/9 97/35/9
f 127/38/15 97/57/15 99/45/15
f 99/45/15 101/58/15 103/59/15
f 103/59/15 105/60/15 107/44/15
f 107/44/15 109/61/15 111/36/15
f 111/36/15 113/62/15 115/43/15
f 115/43/15 117/63/15 119/37/15
f 119/37/15 121/64/15 123/65/15
f 123/65/15 125/66/15 127/38/15
f 127/38/15 99/45/15 103/59/15
f 103/59/15 107/44/15 111/36/15
f 111/36/15 115/43/15 119/37/15
f 119/37/15 123/65/15 127/38/15
f 127/38/15 103/59/15 111/36/15
o Cube
v -0.985516 0.047152 0.677589
v -0.896731 0.935406 0.696081
v -0.985516 0.047152 -1.659494
v -0.665011 1.307290 -1.670157
v 0.985516 0.047152 0.677589
v 0.896731 0.935406 0.696081
v 0.985516 0.047152 -1.659494
v 0.665011 1.307290 -1.670157
v -0.985516 0.047152 -0.820661
v -0.985516 0.047152 0.018173
v -0.715702 1.312510 0.016508
v -0.646295 1.360790 -0.818995
v 0.985516 0.047152 0.018173
v 0.985516 0.047152 -0.820661
v 0.638466 1.360790 -0.818995
v 0.707873 1.312510 0.016508
vn -0.9691 0.2465 -0.0000
vn -0.0000 -0.0085 -1.0000
vn 0.9950 0.0995 -0.0000
vn -0.0000 -0.0208 0.9998
vn -0.0000 -1.0000 -0.0000
vn -0.0000 0.8744 0.4852
vn -0.0000 0.9980 -0.0627
vn -0.0000 0.9983 0.0577
vn 0.9691 0.2465 -0.0000
vn 0.9768 0.2143 -0.0000
vn -0.9950 0.0995 -0.0000
vn -0.9780 0.2085 -0.0000
vn -0.9682 0.2500 0.0056
vn 0.9656 0.2117 -0.1509
vn 0.9667 0.2554 0.0141
vn 0.9647 0.2550 -0.0654
vn -0.9679 0.2062 -0.1434
vn -0.9661 0.2496 -0.0658
vt 0.375000 0.166667
vt 0.625000 0.250000
vt 0.375000 0.250000
vt 0.375000 0.500000
vt 0.375000 0.666667
vt 0.625000 0.750000
vt 0.375000 0.750000
vt 0.625000 1.000000
vt 0.375000 1.000000
vt 0.125000 0.750000
vt 0.125000 0.666667
vt 0.625000 0.666667
vt 0.875000 0.750000
vt 0.875000 0.500000
vt 0.625000 0.583333
vt 0.625000 0.500000
vt 0.875000 0.583333
vt 0.125000 0.583333
vt 0.125000 0.500000
vt 0.375000 0.583333
vt 0.625000 0.000000
vt 0.375000 0.083333
vt 0.375000 0.000000
vt 0.625000 0.083333
vt 0.625000 0.166667
vt 0.875000 0.666667
s 0
f 137/67/19 132/68/19 131/69/19
f 132/68/20 135/70/20 131/69/20
f 141/71/21 134/72/21 133/73/21
f 133/73/22 130/74/22 129/75/22
f 141/71/23 129/76/23 138/77/23
f 144/78/24 130/79/24 134/72/24
f 132/80/25 143/81/25 136/82/25
f 140/83/26 144/78/26 143/81/26
f 135/70/23 137/84/23 131/85/23
f 142/86/23 138/77/23 137/84/23
f 136/82/27 142/86/27 135/70/27
f 142/86/28 144/78/28 141/71/28
f 130/87/29 138/88/29 129/89/29
f 139/90/30 137/67/30 138/88/30
f 137/67/31 140/91/31 132/68/31
f 132/68/20 136/82/20 135/70/20
f 141/71/32 144/78/32 134/72/32
f 133/73/22 134/72/22 130/74/22
f 141/71/23 133/73/23 129/76/23
f 144/78/24 139/92/24 130/79/24
f 132/80/25 140/83/25 143/81/25
f 140/83/26 139/92/26 144/78/26
f 135/70/23 142/86/23 137/84/23
f 142/86/23 141/71/23 138/77/23
f 136/82/33 143/81/33 142/86/33
f 142/86/34 143/81/34 144/78/34
f 130/87/35 139/90/35 138/88/35
f 139/90/36 140/91/36 137/67/36
o Cube.001
v -0.695557 0.101924 2.262312
v -0.695557 0.591100 2.247679
v -0.970573 0.043596 0.599743
v -0.867441 0.875967 0.613335
v 0.695557 0.101924 2.262312
v 0.695557 0.591100 2.247679
v 0.970573 0.043596 0.599743
v 0.867441 0.875967 0.613335
v -0.970573 0.043596 1.827059
v -0.957248 0.708911 1.817264
v 0.970573 0.043596 1.827059
v 0.957248 0.708911 1.817264
vn -0.9998 0.0200 -0.0000
vn -0.0000 0.0163 -0.9999
vn 0.8462 0.0159 0.5326
vn -0.0000 0.0299 0.9996
vn -0.0000 -0.9911 0.1328
vn -0.0000 0.9645 0.2640
vn -0.0000 0.9905 0.1374
vn -0.0000 -1.0000 -0.0000
vn 0.9998 0.0200 -0.0000
vn -0.8462 0.0159 0.5326
vn -0.9907 0.1237 -0.0567
vn 0.8512 0.0248 0.5243
vn 0.9907 0.1237 -0.0567
vn -0.8512 0.0248 0.5243
vt 0.625000 0.065642
vt 0.375000 0.250000
vt 0.375000 0.065642
vt 0.625000 0.250000
vt 0.375000 0.500000
vt 0.375000 0.684358
vt 0.625000 0.750000
vt 0.375000 0.750000
vt 0.375000 1.000000
vt 0.125000 0.750000
vt 0.125000 0.684358
vt 0.875000 0.684358
vt 0.625000 0.684358
vt 0.875000 0.500000
vt 0.625000 0.500000
vt 0.125000 0.500000
vt 0.625000 0.000000
vt 0.375000 0.000000
vt 0.625000 1.000000
vt 0.875000 0.750000
s 0
f 154/93/37 147/94/37 153/95/37
f 148/96/38 151/97/38 147/94/38
f 155/98/39 150/99/39 149/100/39
f 150/99/40 145/101/40 149/100/40
f 155/98/41 145/102/41 153/103/41
f 154/104/42 150/99/42 156/105/42
f 148/106/43 156/105/43 152/107/43
f 151/97/44 153/103/44 147/108/44
f 151/97/45 156/105/45 155/98/45
f 146/109/46 153/95/46 145/110/46
f 154/93/47 148/96/47 147/94/47
f 148/96/38 152/107/38 151/97/38
f 155/98/48 156/105/48 150/99/48
f 150/99/40 146/111/40 145/101/40
f 155/98/41 149/100/41 145/102/41
f 154/104/42 146/112/42 150/99/42
f 148/106/43 154/104/43 156/105/43
f 151/97/44 155/98/44 153/103/44
f 151/97/49 152/107/49 156/105/49
f 146/109/50 154/93/50 153/95/50
o Cube.002
v -0.988725 0.047970 -1.593824
v -0.731457 1.293134 -1.593824
v -1.013308 0.453926 -2.362886
v -0.924930 1.015851 -2.588517
v 0.988725 0.047970 -1.593824
v 0.731457 1.293134 -1.593824
v 1.013308 0.453926 -2.362886
v 0.924930 1.015851 -2.588517
vn -0.9701 0.2004 0.1368
vn -0.0000 -0.3726 -0.9280
vn 0.9701 0.2004 0.1368
vn -0.0000 -0.0000 1.0000
vn -0.0000 -0.8844 -0.4668
vn -0.0000 0.9633 -0.2685
vn -0.9698 0.2053 0.1314
vn 0.9698 0.2053 0.1314
vt 0.625000 0.000000
vt 0.375000 0.250000
vt 0.375000 0.000000
vt 0.625000 0.250000
vt 0.375000 0.500000
vt 0.625000 0.750000
vt 0.375000 0.750000
vt 0.375000 1.000000
vt 0.125000 0.750000
vt 0.125000 0.500000
vt 0.875000 0.500000
vt 0.625000 0.500000
vt 0.625000 1.000000
vt 0.875000 0.750000
s 0
f 158/113/51 159/114/51 157/115/51
f 160/116/52 163/117/52 159/114/52
f 163/117/53 162/118/53 161/119/53
f 162/118/54 157/120/54 161/119/54
f 163/117/55 157/121/55 159/122/55
f 160/123/56 162/118/56 164/124/56
f 158/113/57 160/116/57 159/114/57
f 160/116/52 164/124/52 163/117/52
f 163/117/58 164/124/58 162/118/58
f 162/118/54 158/125/54 157/120/54
f 163/117/55 161/119/55 157/121/55
f 160/123/56 158/126/56 162/118/56
o Cube.003
v -1.037399 0.169892 -2.780270
v -0.874009 0.897968 -2.453623
v -1.037399 0.318650 -3.015476
v -0.975451 0.883399 -2.964257
v 0.993904 0.169892 -2.780270
v 0.879446 0.897968 -2.453623
v 0.993904 0.318650 -3.015476
v 0.980888 0.883399 -2.964257
v -0.852690 0.066352 -1.580080
v -0.852690 0.575472 -2.130106
v 0.852690 0.066352 -1.580080
v 0.852690 0.575472 -2.130106
vn -0.9793 0.1712 0.1083
vn -0.0000 0.0903 -0.9959
vn 0.9897 0.1212 0.0766
vn -0.0000 0.7082 0.7060
vn -0.0000 -0.8452 -0.5345
vn -0.0000 0.9996 -0.0285
vn -0.0000 0.7339 0.6793
vn 0.9822 0.1377 0.1274
vn -0.9721 0.1309 0.1945
vn -0.0000 -0.9963 -0.0860
vn -0.9774 0.0898 0.1916
vn 0.9808 0.0049 0.1947
vn 0.9833 0.0816 0.1627
vn -0.9702 0.1779 0.1647
vt 0.625000 0.000000
vt 0.375000 0.250000
vt 0.375000 0.000000
vt 0.625000 0.250000
vt 0.375000 0.500000
vt 0.625000 0.750000
vt 0.375000 0.750000
vt 0.875000 0.750000
vt 0.125000 0.750000
vt 0.125000 0.500000
vt 0.625000 0.500000
vt 0.375000 1.000000
vt 0.875000 0.500000
vt 0.625000 1.000000
s 0
f 166/127/59 167/128/59 165/129/59
f 168/130/60 171/131/60 167/128/60
f 171/131/61 170/132/61 169/133/61
f 166/134/62 176/132/62 170/132/62
f 171/131/63 165/135/63 167/136/63
f 172/137/64 166/134/64 170/132/64
f 176/132/65 173/138/65 175/133/65
f 169/133/66 176/132/66 175/133/66
f 165/129/67 174/127/67 166/127/67
f 169/133/68 173/135/68 165/135/68
f 166/127/69 168/130/69 167/128/69
f 168/130/60 172/137/60 171/131/60
f 171/131/70 172/137/70 170/132/70
f 166/134/62 174/134/62 176/132/62
f 171/131/63 169/133/63 165/135/63
f 172/137/64 168/139/64 166/134/64
f 176/132/65 174/140/65 173/138/65
f 169/133/71 170/132/71 176/132/71
f 165/129/72 173/129/72 174/127/72
f 169/133/68 175/133/68 173/135/68
