# Blender 4.4.3
# www.blender.org
mtllib car Wheels.mtl
o Wheel_1
v 0.742635 0.568807 1.214096
v 1.046508 0.568807 1.214096
v 0.742635 0.475686 1.082333
v 1.046508 0.475686 1.082333
v 0.742635 0.339230 0.996235
v 1.046508 0.339230 0.996235
v 0.742635 0.180212 0.968911
v 1.046508 0.180212 0.968911
v 0.742635 0.022843 1.004520
v 1.046508 0.022843 1.004520
v 0.742635 -0.108920 1.097641
v 1.046508 -0.108920 1.097641
v 0.742635 -0.195018 1.234097
v 1.046508 -0.195018 1.234097
v 0.742635 -0.222342 1.393115
v 1.046508 -0.222342 1.393115
v 0.742635 -0.186733 1.550484
v 1.046508 -0.186733 1.550484
v 0.742635 -0.093612 1.682247
v 1.046508 -0.093612 1.682247
v 0.742635 0.042845 1.768345
v 1.046508 0.042845 1.768345
v 0.742635 0.201862 1.795669
v 1.046508 0.201862 1.795669
v 0.742635 0.359231 1.760060
v 1.046508 0.359231 1.760060
v 0.742635 0.490994 1.666939
v 1.046508 0.490994 1.666939
v 0.742635 0.577092 1.530483
v 1.046508 0.577092 1.530483
v 0.742635 0.604416 1.371465
v 1.046508 0.604416 1.371465
v -0.742638 -0.085662 1.074984
v -1.046511 -0.085662 1.074984
v -0.742638 -0.182201 1.204265
v -1.046511 -0.182201 1.204265
v -0.742638 -0.221917 1.360648
v -1.046511 -0.221917 1.360648
v -0.742638 -0.198765 1.520326
v -1.046511 -0.198765 1.520326
v -0.742638 -0.116269 1.658989
v -1.046511 -0.116269 1.658989
v -0.742638 0.013012 1.755527
v -1.046511 0.013012 1.755527
v -0.742638 0.169395 1.795244
v -1.046511 0.169395 1.795244
v -0.742638 0.329073 1.772092
v -1.046511 0.329073 1.772092
v -0.742638 0.467736 1.689595
v -1.046511 0.467736 1.689595
v -0.742638 0.564275 1.560315
v -1.046511 0.564275 1.560315
v -0.742638 0.603991 1.403932
v -1.046511 0.603991 1.403932
v -0.742638 0.580839 1.244254
v -1.046511 0.580839 1.244254
v -0.742638 0.498343 1.105591
v -1.046511 0.498343 1.105591
v -0.742638 0.369062 1.009052
v -1.046511 0.369062 1.009052
v -0.742638 0.212679 0.969336
v -1.046511 0.212679 0.969336
v -0.742638 0.053001 0.992488
v -1.046511 0.053001 0.992488
v 0.742636 0.397798 -2.296274
v 1.046510 0.397798 -2.296274
v 0.742636 0.519105 -2.189890
v 1.046510 0.519105 -2.189890
v 0.742636 0.590467 -2.045182
v 1.046510 0.590467 -2.045182
v 0.742636 0.601020 -1.884180
v 1.046510 0.601020 -1.884180
v 0.742636 0.549156 -1.731395
v 1.046510 0.549156 -1.731394
v 0.742636 0.442773 -1.610087
v 1.046510 0.442773 -1.610087
v 0.742636 0.298064 -1.538724
v 1.046510 0.298064 -1.538724
v 0.742636 0.137062 -1.528172
v 1.046510 0.137062 -1.528172
v 0.742636 -0.015723 -1.580036
v 1.046510 -0.015723 -1.580036
v 0.742636 -0.137031 -1.686420
v 1.046510 -0.137031 -1.686420
v 0.742636 -0.208393 -1.831128
v 1.046510 -0.208393 -1.831128
v 0.742636 -0.218946 -1.992131
v 1.046510 -0.218946 -1.992131
v 0.742636 -0.167082 -2.144915
v 1.046510 -0.167082 -2.144915
v 0.742636 -0.060698 -2.266223
v 1.046510 -0.060698 -2.266223
v 0.742636 0.084010 -2.337585
v 1.046510 0.084010 -2.337585
v 0.742636 0.245013 -2.348138
v 1.046510 0.245013 -2.348138
v -0.742637 0.191037 -2.351676
v -1.046510 0.191037 -2.351676
v -0.742637 0.349285 -2.320198
v -1.046510 0.349285 -2.320198
v -0.742637 0.483440 -2.230558
v -1.046510 0.483440 -2.230558
v -0.742637 0.573080 -2.096402
v -1.046510 0.573080 -2.096402
v -0.742637 0.604557 -1.938155
v -1.046510 0.604558 -1.938155
v -0.742637 0.573080 -1.779907
v -1.046510 0.573080 -1.779907
v -0.742637 0.483440 -1.645752
v -1.046510 0.483440 -1.645752
v -0.742637 0.349284 -1.556111
v -1.046510 0.349284 -1.556111
v -0.742637 0.191037 -1.524634
v -1.046510 0.191037 -1.524634
v -0.742637 0.032790 -1.556111
v -1.046510 0.032790 -1.556111
v -0.742637 -0.101366 -1.645752
v -1.046510 -0.101366 -1.645752
v -0.742637 -0.191006 -1.779907
v -1.046510 -0.191006 -1.779907
v -0.742637 -0.222483 -1.938155
v -1.046510 -0.222483 -1.938155
v -0.742637 -0.191006 -2.096402
v -1.046510 -0.191006 -2.096402
v -0.742637 -0.101366 -2.230558
v -1.046510 -0.101366 -2.230558
v -0.742637 0.032790 -2.320198
v -1.046510 0.032790 -2.320198
vn -0.0000 0.8166 -0.5771
vn -0.0000 0.5336 -0.8457
vn -0.0000 0.1693 -0.9856
vn -0.0000 -0.2207 -0.9753
vn -0.0000 -0.5771 -0.8166
vn -0.0000 -0.8457 -0.5336
vn -0.0000 -0.9856 -0.1693
vn -0.0000 -0.9753 0.2207
vn -0.0000 -0.8166 0.5771
vn -0.0000 -0.5336 0.8457
vn -0.0000 -0.1693 0.9856
vn -0.0000 0.2207 0.9753
vn -0.0000 0.5771 0.8166
vn -0.0000 0.8457 0.5336
vn 1.0000 -0.0000 -0.0000
vn -0.0000 0.9856 0.1693
vn -0.0000 0.9753 -0.2207
vn -1.0000 -0.0000 -0.0000
vn -0.0000 -0.8013 -0.5983
vn -0.0000 -0.9692 -0.2462
vn -0.0000 -0.9897 0.1435
vn -0.0000 -0.8594 0.5113
vn -0.0000 -0.5983 0.8013
vn -0.0000 -0.2462 0.9692
vn -0.0000 0.1435 0.9897
vn -0.0000 0.5113 0.8594
vn -0.0000 0.8013 0.5983
vn -0.0000 0.9692 0.2462
vn -0.0000 0.9897 -0.1435
vn -0.0000 0.8594 -0.5113
vn -0.0000 0.5983 -0.8013
vn -0.0000 0.2462 -0.9692
vn -0.0000 -0.1435 -0.9897
vn -0.0000 -0.5113 -0.8594
vn -0.0000 0.6593 -0.7518
vn -0.0000 0.8969 -0.4423
vn -0.0000 0.9979 -0.0654
vn -0.0000 0.9469 0.3214
vn -0.0000 0.7518 0.6593
vn -0.0000 0.4423 0.8969
vn -0.0000 0.0654 0.9979
vn -0.0000 -0.3214 0.9469
vn -0.0000 -0.6593 0.7518
vn -0.0000 -0.8969 0.4423
vn -0.0000 -0.9979 0.0654
vn -0.0000 -0.9469 -0.3214
vn -0.0000 -0.7518 -0.6593
vn -0.0000 -0.4423 -0.8969
vn -0.0000 -0.0654 -0.9979
vn -0.0000 0.3214 -0.9469
vn -0.0000 0.1951 -0.9808
vn -0.0000 0.5556 -0.8315
vn -0.0000 0.8315 -0.5556
vn -0.0000 0.9808 -0.1951
vn -0.0000 0.9808 0.1951
vn -0.0000 0.8315 0.5556
vn -0.0000 0.5556 0.8315
vn -0.0000 0.1951 0.9808
vn -0.0000 -0.1951 0.9808
vn -0.0000 -0.5556 0.8315
vn -0.0000 -0.8315 0.5556
vn -0.0000 -0.9808 0.1951
vn -0.0000 -0.9808 -0.1951
vn -0.0000 -0.8315 -0.5556
vn -0.0000 -0.5556 -0.8315
vn -0.0000 -0.1951 -0.9808
vt 0.968880 0.174762
vt 0.959295 0.098082
vt 0.968880 0.098082
vt 0.959295 0.174762
vt 0.949710 0.098082
vt 0.949710 0.174762
vt 0.940125 0.098082
vt 0.940125 0.174762
vt 0.930540 0.098082
vt 0.930540 0.174762
vt 0.920955 0.098082
vt 0.920955 0.174762
vt 0.911370 0.098082
vt 0.911370 0.174762
vt 0.901785 0.098082
vt 0.892200 0.174762
vt 0.892200 0.098082
vt 0.882615 0.174762
vt 0.882615 0.098082
vt 0.873030 0.098082
vt 0.873030 0.174762
vt 0.863445 0.098082
vt 0.863445 0.174762
vt 0.853860 0.098082
vt 0.853860 0.174762
vt 0.844275 0.098082
vt 0.844275 0.174762
vt 0.834690 0.098082
vt 0.827834 0.033716
vt 0.879886 0.033716
vt 0.879886 0.085768
vt 0.834690 0.174762
vt 0.825105 0.098082
vt 0.825105 0.174762
vt 0.815520 0.098082
vt 0.944625 0.025737
vt 0.896535 0.045657
vt 0.916454 0.093746
vt 0.787299 0.107471
vt 0.795787 0.175379
vt 0.795787 0.107471
vt 0.778810 0.107471
vt 0.787299 0.175379
vt 0.770321 0.107471
vt 0.778810 0.175379
vt 0.761833 0.107471
vt 0.770321 0.175379
vt 0.753344 0.107471
vt 0.761833 0.175379
vt 0.744856 0.107471
vt 0.753344 0.175379
vt 0.736367 0.107471
vt 0.744856 0.175379
vt 0.727879 0.107471
vt 0.736367 0.175379
vt 0.719390 0.107471
vt 0.727879 0.175379
vt 0.710902 0.107471
vt 0.719390 0.175379
vt 0.702413 0.107471
vt 0.710902 0.175379
vt 0.693925 0.107471
vt 0.702413 0.175379
vt 0.685436 0.107471
vt 0.693925 0.175379
vt 0.676948 0.107471
vt 0.685436 0.175379
vt 0.693925 0.040921
vt 0.661329 0.073517
vt 0.693925 0.106113
vt 0.668459 0.107471
vt 0.676948 0.175379
vt 0.659971 0.107471
vt 0.668459 0.175379
vt 0.749359 0.043402
vt 0.791948 0.061043
vt 0.774307 0.103631
vt 0.959072 0.274860
vt 0.967961 0.345970
vt 0.967961 0.274860
vt 0.950183 0.274860
vt 0.959072 0.345970
vt 0.941294 0.274860
vt 0.950183 0.345970
vt 0.932405 0.274860
vt 0.941294 0.345970
vt 0.923517 0.274860
vt 0.932405 0.345970
vt 0.914628 0.274860
vt 0.923517 0.345970
vt 0.905739 0.274860
vt 0.914628 0.345970
vt 0.896850 0.274860
vt 0.905739 0.345970
vt 0.887961 0.274860
vt 0.896850 0.345970
vt 0.879073 0.274860
vt 0.887961 0.345970
vt 0.870184 0.274860
vt 0.879073 0.345970
vt 0.861295 0.274860
vt 0.870184 0.345970
vt 0.852406 0.274860
vt 0.861295 0.345970
vt 0.843517 0.274860
vt 0.852406 0.345970
vt 0.861295 0.205172
vt 0.827162 0.239305
vt 0.861295 0.273438
vt 0.834629 0.274860
vt 0.843517 0.345970
vt 0.825740 0.274860
vt 0.834629 0.345970
vt 0.919343 0.207770
vt 0.963940 0.226243
vt 0.945468 0.270839
vt 0.791868 0.348144
vt 0.782900 0.276404
vt 0.791868 0.276404
vt 0.782900 0.348144
vt 0.773933 0.276404
vt 0.773933 0.348144
vt 0.764965 0.276404
vt 0.764965 0.348144
vt 0.755998 0.276404
vt 0.755998 0.348144
vt 0.747030 0.276404
vt 0.747030 0.348144
vt 0.738063 0.276404
vt 0.738063 0.348144
vt 0.729095 0.276404
vt 0.729095 0.348144
vt 0.720128 0.276404
vt 0.720128 0.348144
vt 0.711160 0.276404
vt 0.711160 0.348144
vt 0.702193 0.276404
vt 0.702193 0.348144
vt 0.693225 0.276404
vt 0.693225 0.348144
vt 0.684258 0.276404
vt 0.684258 0.348144
vt 0.675290 0.276404
vt 0.675290 0.348144
vt 0.666323 0.276404
vt 0.659909 0.216185
vt 0.708607 0.216185
vt 0.708607 0.264883
vt 0.666323 0.348144
vt 0.657355 0.276404
vt 0.657355 0.348144
vt 0.648388 0.276404
vt 0.769176 0.208720
vt 0.724184 0.227356
vt 0.742820 0.272348
vt 0.901785 0.174762
vt 0.867945 0.093746
vt 0.853860 0.096548
vt 0.839774 0.093746
vt 0.827834 0.085768
vt 0.819855 0.073827
vt 0.817053 0.059742
vt 0.819855 0.045657
vt 0.839774 0.025737
vt 0.853860 0.022935
vt 0.867945 0.025737
vt 0.887864 0.045657
vt 0.890666 0.059742
vt 0.887864 0.073827
vt 0.815520 0.174762
vt 0.930540 0.096548
vt 0.944625 0.093746
vt 0.956566 0.085768
vt 0.964544 0.073827
vt 0.967346 0.059742
vt 0.964544 0.045657
vt 0.956566 0.033716
vt 0.930540 0.022935
vt 0.916454 0.025737
vt 0.904514 0.033716
vt 0.893733 0.059742
vt 0.896535 0.073827
vt 0.904514 0.085768
vt 0.706399 0.103631
vt 0.716974 0.096565
vt 0.724039 0.085991
vt 0.726521 0.073517
vt 0.724039 0.061043
vt 0.716974 0.050468
vt 0.706399 0.043402
vt 0.681451 0.043402
vt 0.670876 0.050468
vt 0.663810 0.061043
vt 0.663810 0.085991
vt 0.670876 0.096565
vt 0.681451 0.103631
vt 0.659971 0.175379
vt 0.761833 0.106113
vt 0.749359 0.103631
vt 0.738784 0.096565
vt 0.731718 0.085991
vt 0.729237 0.073517
vt 0.731718 0.061043
vt 0.738784 0.050468
vt 0.761833 0.040921
vt 0.774307 0.043402
vt 0.784882 0.050468
vt 0.794429 0.073517
vt 0.791948 0.085991
vt 0.784882 0.096565
vt 0.874357 0.270839
vt 0.885431 0.263440
vt 0.892830 0.252367
vt 0.895428 0.239305
vt 0.892830 0.226243
vt 0.885431 0.215169
vt 0.874357 0.207770
vt 0.848233 0.207770
vt 0.837159 0.215169
vt 0.829760 0.226243
vt 0.829760 0.252367
vt 0.837159 0.263440
vt 0.848233 0.270839
vt 0.825740 0.345970
vt 0.932405 0.273438
vt 0.919343 0.270839
vt 0.908270 0.263440
vt 0.900871 0.252367
vt 0.898273 0.239305
vt 0.900871 0.226243
vt 0.908270 0.215169
vt 0.932405 0.205172
vt 0.945468 0.207770
vt 0.956541 0.215169
vt 0.966538 0.239305
vt 0.963940 0.252367
vt 0.956541 0.263440
vt 0.697436 0.272348
vt 0.684258 0.274969
vt 0.671080 0.272348
vt 0.659909 0.264883
vt 0.652444 0.253712
vt 0.649823 0.240534
vt 0.652444 0.227356
vt 0.671080 0.208720
vt 0.684258 0.206099
vt 0.697436 0.208720
vt 0.716072 0.227356
vt 0.718693 0.240534
vt 0.716072 0.253712
vt 0.648388 0.348144
vt 0.755998 0.274969
vt 0.769176 0.272348
vt 0.780347 0.264883
vt 0.787812 0.253712
vt 0.790433 0.240534
vt 0.787812 0.227356
vt 0.780347 0.216185
vt 0.755998 0.206099
vt 0.742820 0.208720
vt 0.731649 0.216185
vt 0.721563 0.240534
vt 0.724184 0.253712
vt 0.731649 0.264883
s 0
f 2/1/1 3/2/1 1/3/1
f 4/4/2 5/5/2 3/2/2
f 6/6/3 7/7/3 5/5/3
f 8/8/4 9/9/4 7/7/4
f 10/10/5 11/11/5 9/9/5
f 12/12/6 13/13/6 11/11/6
f 14/14/7 15/15/7 13/13/7
f 15/15/8 18/16/8 17/17/8
f 17/17/9 20/18/9 19/19/9
f 20/18/10 21/20/10 19/19/10
f 22/21/11 23/22/11 21/20/11
f 24/23/12 25/24/12 23/22/12
f 26/25/13 27/26/13 25/24/13
f 28/27/14 29/28/14 27/26/14
f 22/29/15 14/30/15 6/31/15
f 30/32/16 31/33/16 29/28/16
f 32/34/17 1/35/17 31/33/17
f 15/36/18 23/37/18 31/38/18
f 35/39/19 34/40/19 33/41/19
f 37/42/20 36/43/20 35/39/20
f 39/44/21 38/45/21 37/42/21
f 41/46/22 40/47/22 39/44/22
f 43/48/23 42/49/23 41/46/23
f 45/50/24 44/51/24 43/48/24
f 47/52/25 46/53/25 45/50/25
f 49/54/26 48/55/26 47/52/26
f 51/56/27 50/57/27 49/54/27
f 53/58/28 52/59/28 51/56/28
f 55/60/29 54/61/29 53/58/29
f 57/62/30 56/63/30 55/60/30
f 59/64/31 58/65/31 57/62/31
f 61/66/32 60/67/32 59/64/32
f 50/68/18 58/69/18 34/70/18
f 63/71/33 62/72/33 61/66/33
f 33/73/34 64/74/34 63/71/34
f 51/75/15 43/76/15 35/77/15
f 67/78/35 66/79/35 65/80/35
f 69/81/36 68/82/36 67/78/36
f 71/83/37 70/84/37 69/81/37
f 73/85/38 72/86/38 71/83/38
f 75/87/39 74/88/39 73/85/39
f 77/89/40 76/90/40 75/87/40
f 79/91/41 78/92/41 77/89/41
f 81/93/42 80/94/42 79/91/42
f 83/95/43 82/96/43 81/93/43
f 85/97/44 84/98/44 83/95/44
f 87/99/45 86/100/45 85/97/45
f 89/101/46 88/102/46 87/99/46
f 91/103/47 90/104/47 89/101/47
f 93/105/48 92/106/48 91/103/48
f 82/107/15 90/108/15 66/109/15
f 95/110/49 94/111/49 93/105/49
f 65/112/50 96/113/50 95/110/50
f 83/114/18 75/115/18 67/116/18
f 98/117/51 99/118/51 97/119/51
f 100/120/52 101/121/52 99/118/52
f 102/122/53 103/123/53 101/121/53
f 104/124/54 105/125/54 103/123/54
f 106/126/55 107/127/55 105/125/55
f 108/128/56 109/129/56 107/127/56
f 110/130/57 111/131/57 109/129/57
f 112/132/58 113/133/58 111/131/58
f 114/134/59 115/135/59 113/133/59
f 116/136/60 117/137/60 115/135/60
f 118/138/61 119/139/61 117/137/61
f 120/140/62 121/141/62 119/139/62
f 122/142/63 123/143/63 121/141/63
f 124/144/64 125/145/64 123/143/64
f 118/146/18 110/147/18 102/148/18
f 126/149/65 127/150/65 125/145/65
f 128/151/66 97/152/66 127/150/66
f 111/153/15 119/154/15 127/155/15
f 2/1/1 4/4/1 3/2/1
f 4/4/2 6/6/2 5/5/2
f 6/6/3 8/8/3 7/7/3
f 8/8/4 10/10/4 9/9/4
f 10/10/5 12/12/5 11/11/5
f 12/12/6 14/14/6 13/13/6
f 14/14/7 16/156/7 15/15/7
f 15/15/8 16/156/8 18/16/8
f 17/17/9 18/16/9 20/18/9
f 20/18/10 22/21/10 21/20/10
f 22/21/11 24/23/11 23/22/11
f 24/23/12 26/25/12 25/24/12
f 26/25/13 28/27/13 27/26/13
f 28/27/14 30/32/14 29/28/14
f 6/31/15 4/157/15 2/158/15
f 2/158/15 32/159/15 30/160/15
f 30/160/15 28/161/15 26/162/15
f 26/162/15 24/163/15 22/29/15
f 22/29/15 20/164/15 18/165/15
f 18/165/15 16/166/15 14/30/15
f 14/30/15 12/167/15 10/168/15
f 10/168/15 8/169/15 6/31/15
f 6/31/15 2/158/15 30/160/15
f 30/160/15 26/162/15 22/29/15
f 22/29/15 18/165/15 14/30/15
f 14/30/15 10/168/15 6/31/15
f 6/31/15 30/160/15 22/29/15
f 30/32/16 32/34/16 31/33/16
f 32/34/17 2/170/17 1/35/17
f 31/38/18 1/171/18 3/172/18
f 3/172/18 5/173/18 7/174/18
f 7/174/18 9/175/18 11/176/18
f 11/176/18 13/177/18 15/36/18
f 15/36/18 17/178/18 19/179/18
f 19/179/18 21/180/18 23/37/18
f 23/37/18 25/181/18 27/182/18
f 27/182/18 29/183/18 31/38/18
f 31/38/18 3/172/18 7/174/18
f 7/174/18 11/176/18 15/36/18
f 15/36/18 19/179/18 23/37/18
f 23/37/18 27/182/18 31/38/18
f 31/38/18 7/174/18 15/36/18
f 35/39/19 36/43/19 34/40/19
f 37/42/20 38/45/20 36/43/20
f 39/44/21 40/47/21 38/45/21
f 41/46/22 42/49/22 40/47/22
f 43/48/23 44/51/23 42/49/23
f 45/50/24 46/53/24 44/51/24
f 47/52/25 48/55/25 46/53/25
f 49/54/26 50/57/26 48/55/26
f 51/56/27 52/59/27 50/57/27
f 53/58/28 54/61/28 52/59/28
f 55/60/29 56/63/29 54/61/29
f 57/62/30 58/65/30 56/63/30
f 59/64/31 60/67/31 58/65/31
f 61/66/32 62/72/32 60/67/32
f 34/70/18 36/184/18 38/185/18
f 38/185/18 40/186/18 42/187/18
f 42/187/18 44/188/18 46/189/18
f 46/189/18 48/190/18 50/68/18
f 50/68/18 52/191/18 54/192/18
f 54/192/18 56/193/18 58/69/18
f 58/69/18 60/194/18 62/195/18
f 62/195/18 64/196/18 34/70/18
f 34/70/18 38/185/18 42/187/18
f 42/187/18 46/189/18 50/68/18
f 50/68/18 54/192/18 58/69/18
f 58/69/18 62/195/18 34/70/18
f 34/70/18 42/187/18 50/68/18
f 63/71/33 64/74/33 62/72/33
f 33/73/34 34/197/34 64/74/34
f 35/77/15 33/198/15 63/199/15
f 63/199/15 61/200/15 59/201/15
f 59/201/15 57/202/15 55/203/15
f 55/203/15 53/204/15 51/75/15
f 51/75/15 49/205/15 47/206/15
f 47/206/15 45/207/15 43/76/15
f 43/76/15 41/208/15 39/209/15
f 39/209/15 37/210/15 35/77/15
f 35/77/15 63/199/15 59/201/15
f 59/201/15 55/203/15 51/75/15
f 51/75/15 47/206/15 43/76/15
f 43/76/15 39/209/15 35/77/15
f 35/77/15 59/201/15 51/75/15
f 67/78/35 68/82/35 66/79/35
f 69/81/36 70/84/36 68/82/36
f 71/83/37 72/86/37 70/84/37
f 73/85/38 74/88/38 72/86/38
f 75/87/39 76/90/39 74/88/39
f 77/89/40 78/92/40 76/90/40
f 79/91/41 80/94/41 78/92/41
f 81/93/42 82/96/42 80/94/42
f 83/95/43 84/98/43 82/96/43
f 85/97/44 86/100/44 84/98/44
f 87/99/45 88/102/45 86/100/45
f 89/101/46 90/104/46 88/102/46
f 91/103/47 92/106/47 90/104/47
f 93/105/48 94/111/48 92/106/48
f 66/109/15 68/211/15 70/212/15
f 70/212/15 72/213/15 74/214/15
f 74/214/15 76/215/15 78/216/15
f 78/216/15 80/217/15 82/107/15
f 82/107/15 84/218/15 86/219/15
f 86/219/15 88/220/15 90/108/15
f 90/108/15 92/221/15 94/222/15
f 94/222/15 96/223/15 66/109/15
f 66/109/15 70/212/15 74/214/15
f 74/214/15 78/216/15 82/107/15
f 82/107/15 86/219/15 90/108/15
f 90/108/15 94/222/15 66/109/15
f 66/109/15 74/214/15 82/107/15
f 95/110/49 96/113/49 94/111/49
f 65/112/50 66/224/50 96/113/50
f 67/116/18 65/225/18 95/226/18
f 95/226/18 93/227/18 91/228/18
f 91/228/18 89/229/18 87/230/18
f 87/230/18 85/231/18 83/114/18
f 83/114/18 81/232/18 79/233/18
f 79/233/18 77/234/18 75/115/18
f 75/115/18 73/235/18 71/236/18
f 71/236/18 69/237/18 67/116/18
f 67/116/18 95/226/18 91/228/18
f 91/228/18 87/230/18 83/114/18
f 83/114/18 79/233/18 75/115/18
f 75/115/18 71/236/18 67/116/18
f 67/116/18 91/228/18 83/114/18
f 98/117/51 100/120/51 99/118/51
f 100/120/52 102/122/52 101/121/52
f 102/122/53 104/124/53 103/123/53
f 104/124/54 106/126/54 105/125/54
f 106/126/55 108/128/55 107/127/55
f 108/128/56 110/130/56 109/129/56
f 110/130/57 112/132/57 111/131/57
f 112/132/58 114/134/58 113/133/58
f 114/134/59 116/136/59 115/135/59
f 116/136/60 118/138/60 117/137/60
f 118/138/61 120/140/61 119/139/61
f 120/140/62 122/142/62 121/141/62
f 122/142/63 124/144/63 123/143/63
f 124/144/64 126/149/64 125/145/64
f 102/148/18 100/238/18 98/239/18
f 98/239/18 128/240/18 126/241/18
f 126/241/18 124/242/18 122/243/18
f 122/243/18 120/244/18 118/146/18
f 118/146/18 116/245/18 114/246/18
f 114/246/18 112/247/18 110/147/18
f 110/147/18 108/248/18 106/249/18
f 106/249/18 104/250/18 102/148/18
f 102/148/18 98/239/18 126/241/18
f 126/241/18 122/243/18 118/146/18
f 118/146/18 114/246/18 110/147/18
f 110/147/18 106/249/18 102/148/18
f 102/148/18 126/241/18 118/146/18
f 126/149/65 128/151/65 127/150/65
f 128/151/66 98/251/66 97/152/66
f 127/155/15 97/252/15 99/253/15
f 99/253/15 101/254/15 103/255/15
f 103/255/15 105/256/15 107/257/15
f 107/257/15 109/258/15 111/153/15
f 111/153/15 113/259/15 115/260/15
f 115/260/15 117/261/15 119/154/15
f 119/154/15 121/262/15 123/263/15
f 123/263/15 125/264/15 127/155/15
f 127/155/15 99/253/15 103/255/15
f 103/255/15 107/257/15 111/153/15
f 111/153/15 115/260/15 119/154/15
f 119/154/15 123/263/15 127/155/15
f 127/155/15 103/255/15 111/153/15
